<?xml version="1.0" encoding="UTF-8" standalone="no"?>
<svg
   xmlns:dc="http://purl.org/dc/elements/1.1/"
   xmlns:cc="http://creativecommons.org/ns#"
   xmlns:rdf="http://www.w3.org/1999/02/22-rdf-syntax-ns#"
   xmlns:svg="http://www.w3.org/2000/svg"
   xmlns="http://www.w3.org/2000/svg"
   xmlns:sodipodi="http://sodipodi.sourceforge.net/DTD/sodipodi-0.dtd"
   xmlns:inkscape="http://www.inkscape.org/namespaces/inkscape"
   id="money-in-hero"
   viewBox="0 0 135.2634 227.10019"
   height="227.10019"
   width="135.2634"
   version="1.1"
   sodipodi:docname="money-in-hero.svg"
   inkscape:version="0.92.2 (5c3e80d, 2017-08-06)">
  <sodipodi:namedview
     pagecolor="#ffffff"
     bordercolor="#666666"
     borderopacity="1"
     objecttolerance="10"
     gridtolerance="10"
     guidetolerance="10"
     inkscape:pageopacity="0"
     inkscape:pageshadow="2"
     inkscape:window-width="1920"
     inkscape:window-height="1017"
     id="namedview41"
     showgrid="false"
     inkscape:zoom="0.86446886"
     inkscape:cx="-135.38313"
     inkscape:cy="113.5501"
     inkscape:window-x="-8"
     inkscape:window-y="-8"
     inkscape:window-maximized="1"
     inkscape:current-layer="money-in-hero"
     fit-margin-left="12"
     fit-margin-right="12"
     fit-margin-top="12"
     fit-margin-bottom="12" />
  <metadata
     id="metadata23">
    <rdf:RDF>
      <cc:Work
         rdf:about="">
        <dc:format>image/svg+xml</dc:format>
        <dc:type
           rdf:resource="http://purl.org/dc/dcmitype/StillImage" />
        <dc:title></dc:title>
      </cc:Work>
    </rdf:RDF>
  </metadata>
  <defs
     id="defs21">
    <clipPath
       id="clipPath230"
       clipPathUnits="userSpaceOnUse">
      <path
         id="path228"
         d="M 0,533.362 H 680.515 V 0 H 0 Z"
         inkscape:connector-curvature="0" />
    </clipPath>
    <clipPath
       id="clipPath186"
       clipPathUnits="userSpaceOnUse">
      <path
         id="path184"
         d="M 0,533.362 H 680.515 V 0 H 0 Z"
         inkscape:connector-curvature="0" />
    </clipPath>
  </defs>
  <g
     id="g180"
     transform="matrix(1.0760275,0,0,-1.0760275,-102.13919,447.04222)">
    <g
       clip-path="url(#clipPath186)"
       id="g182">
      <g
         transform="translate(195.2026,215.554)"
         id="g188">
        <path
           id="path190"
           style="fill:#000000;fill-opacity:1;fill-rule:nonzero;stroke:none"
           d="m 0,0 h -74.854 c -7.851,0 -14.274,6.424 -14.274,14.274 v 160.202 c 0,7.851 6.423,14.274 14.274,14.274 H 0 c 7.851,0 14.274,-6.423 14.274,-14.274 V 14.274 C 14.274,6.424 7.851,0 0,0"
           inkscape:connector-curvature="0" />
      </g>
      <path
         id="path192"
         style="fill:#ffffff;fill-opacity:1;fill-rule:nonzero;stroke:none"
         d="m 202.689,241.193 h -89.826 v 140.212 h 89.826 z"
         inkscape:connector-curvature="0" />
      <path
         id="path194"
         style="fill:#211e1f;fill-opacity:1;fill-rule:nonzero;stroke:none"
         d="m 172.068,248.217 h -28.585 v 5.744 h 28.585 z"
         inkscape:connector-curvature="0" />
      <g
         transform="translate(163.2417,227.6253)"
         id="g196">
        <path
           id="path198"
           style="fill:#ffffff;fill-opacity:1;fill-rule:nonzero;stroke:none"
           d="m 0,0 c 0,-3.019 -2.447,-5.466 -5.466,-5.466 -3.018,0 -5.466,2.447 -5.466,5.466 0,3.019 2.448,5.466 5.466,5.466 C -2.447,5.466 0,3.019 0,0"
           inkscape:connector-curvature="0" />
      </g>
    </g>
  </g>
  <g
     transform="matrix(1.0760275,0,0,-1.0760275,16.463477,94.684972)"
     id="g200">
    <path
       id="path202"
       style="fill:none;stroke:#000000;stroke-width:4;stroke-linecap:butt;stroke-linejoin:round;stroke-miterlimit:4;stroke-dasharray:none;stroke-opacity:1"
       d="M 0,0 H 25.208"
       inkscape:connector-curvature="0" />
  </g>
  <g
     transform="matrix(1.0760275,0,0,-1.0760275,15.485691,117.80643)"
     id="g204">
    <path
       id="path206"
       style="fill:none;stroke:#000000;stroke-width:4;stroke-linecap:butt;stroke-linejoin:round;stroke-miterlimit:4;stroke-dasharray:none;stroke-opacity:1"
       d="M 0,0 H 17.63"
       inkscape:connector-curvature="0" />
  </g>
  <g
     transform="matrix(1.0760275,0,0,-1.0760275,51.989177,94.866172)"
     id="g208">
    <path
       id="path210"
       style="fill:#000000;fill-opacity:1;fill-rule:nonzero;stroke:none"
       d="M 0,0 -8.712,5.697 V -5.36 Z"
       inkscape:connector-curvature="0" />
  </g>
  <g
     transform="matrix(1.0760275,0,0,-1.0760275,23.271072,78.826142)"
     id="g212">
    <path
       id="path214"
       style="fill:none;stroke:#000000;stroke-width:4;stroke-linecap:butt;stroke-linejoin:round;stroke-miterlimit:4;stroke-dasharray:none;stroke-opacity:1"
       d="M 0,0 H 37.438"
       inkscape:connector-curvature="0" />
  </g>
  <g
     transform="matrix(1.0760275,0,0,-1.0760275,15.97431,132.44836)"
     id="g216">
    <path
       id="path218"
       style="fill:none;stroke:#000000;stroke-width:4;stroke-linecap:butt;stroke-linejoin:round;stroke-miterlimit:4;stroke-dasharray:none;stroke-opacity:1"
       d="M 0,0 H 38.044"
       inkscape:connector-curvature="0" />
  </g>
  <g
     transform="matrix(1.0760275,0,0,-1.0760275,65.312327,132.62967)"
     id="g220">
    <path
       id="path222"
       style="fill:#000000;fill-opacity:1;fill-rule:nonzero;stroke:none"
       d="M 0,0 -8.712,5.697 V -5.361 Z"
       inkscape:connector-curvature="0" />
  </g>
  <g
     id="g224"
     transform="matrix(1.0760275,0,0,-1.0760275,-102.13919,447.04222)">
    <g
       clip-path="url(#clipPath230)"
       id="g226">
      <g
         transform="translate(202.7168,291.5423)"
         id="g232">
        <path
           id="path234"
           style="fill:#73c7c7;fill-opacity:1;fill-rule:nonzero;stroke:none"
           d="m 0,0 c -5.006,-3.589 -11.143,-5.702 -17.773,-5.702 -16.866,0 -30.538,13.672 -30.538,30.538 0,16.866 13.672,30.538 30.538,30.538 6.618,0 12.745,-2.105 17.746,-5.683 z"
           inkscape:connector-curvature="0" />
      </g>
      <g
         transform="translate(190.8726,326.0296)"
         id="g236">
        <path
           id="path238"
           style="fill:none;stroke:#000000;stroke-width:4;stroke-linecap:butt;stroke-linejoin:round;stroke-miterlimit:4;stroke-dasharray:none;stroke-opacity:1"
           d="m 0,0 c -2.093,5.324 -12.561,4.356 -12.55,-2.852 0.01,-7.207 14.451,-5.133 14.19,-13.756 -0.689,-8.681 -14.333,-7.732 -15.115,-0.263"
           inkscape:connector-curvature="0" />
      </g>
      <g
         transform="translate(184.499,336.2952)"
         id="g240">
        <path
           id="path242"
           style="fill:none;stroke:#000000;stroke-width:4;stroke-linecap:butt;stroke-linejoin:round;stroke-miterlimit:4;stroke-dasharray:none;stroke-opacity:1"
           d="M 0,0 -0.078,-6.03"
           inkscape:connector-curvature="0" />
      </g>
      <g
         transform="translate(185.0986,302.4622)"
         id="g244">
        <path
           id="path246"
           style="fill:none;stroke:#000000;stroke-width:4;stroke-linecap:butt;stroke-linejoin:round;stroke-miterlimit:4;stroke-dasharray:none;stroke-opacity:1"
           d="M 0,0 0.077,-6.03"
           inkscape:connector-curvature="0" />
      </g>
      <g
         transform="translate(205.7275,293.9949)"
         id="g248">
        <path
           id="path250"
           style="fill:none;stroke:#000000;stroke-width:4;stroke-linecap:butt;stroke-linejoin:round;stroke-miterlimit:4;stroke-dasharray:none;stroke-opacity:1"
           d="m 0,0 c -5.451,-5.065 -12.755,-8.163 -20.784,-8.163 -16.865,0 -30.537,13.672 -30.537,30.538 0,16.866 13.672,30.538 30.537,30.538 8.153,0 15.558,-3.194 21.035,-8.399"
           inkscape:connector-curvature="0" />
      </g>
    </g>
  </g>
</svg>
