<?xml version="1.0" encoding="UTF-8" standalone="no"?>
<svg
   xmlns:dc="http://purl.org/dc/elements/1.1/"
   xmlns:cc="http://creativecommons.org/ns#"
   xmlns:rdf="http://www.w3.org/1999/02/22-rdf-syntax-ns#"
   xmlns:svg="http://www.w3.org/2000/svg"
   xmlns="http://www.w3.org/2000/svg"
   xmlns:sodipodi="http://sodipodi.sourceforge.net/DTD/sodipodi-0.dtd"
   xmlns:inkscape="http://www.inkscape.org/namespaces/inkscape"
   id="svg46"
   version="1.1"
   viewBox="0 0 237.65016 206.79579"
   height="206.79579"
   width="237.65016"
   sodipodi:docname="money-max-hero.svg"
   inkscape:version="0.92.3 (2405546, 2018-03-11)">
  <sodipodi:namedview
     pagecolor="#ffffff"
     bordercolor="#666666"
     borderopacity="1"
     objecttolerance="10"
     gridtolerance="10"
     guidetolerance="10"
     inkscape:pageopacity="0"
     inkscape:pageshadow="2"
     inkscape:window-width="712"
     inkscape:window-height="480"
     id="namedview24"
     showgrid="false"
     inkscape:zoom="1.1412225"
     inkscape:cx="118.82508"
     inkscape:cy="103.3979"
     inkscape:window-x="0"
     inkscape:window-y="0"
     inkscape:window-maximized="0"
     inkscape:current-layer="svg46" />
  <metadata
     id="metadata52">
    <rdf:RDF>
      <cc:Work
         rdf:about="">
        <dc:format>image/svg+xml</dc:format>
        <dc:type
           rdf:resource="http://purl.org/dc/dcmitype/StillImage" />
        <dc:title></dc:title>
      </cc:Work>
    </rdf:RDF>
  </metadata>
  <defs
     id="defs50">
    <clipPath
       id="clipPath18"
       clipPathUnits="userSpaceOnUse">
      <path
         id="path16"
         d="M 0,533.362 H 680.515 V 0 H 0 Z" />
    </clipPath>
  </defs>
  <g
     id="g12"
     transform="matrix(1.1734072,0,0,-1.1734072,-284.51921,217.22943)">
    <g
       clip-path="url(#clipPath18)"
       id="g14">
      <g
         transform="translate(431.1797,29.345)"
         id="g20">
        <path
           id="path22"
           style="fill:#000000;fill-opacity:1;fill-rule:nonzero;stroke:none"
           d="m 0,0 h -174.883 c -7.603,0 -13.824,6.221 -13.824,13.823 v 116.204 c 0,7.604 6.221,13.824 13.824,13.824 H 0 c 7.603,0 13.823,-6.22 13.823,-13.824 V 13.823 C 13.823,6.221 7.603,0 0,0" />
      </g>
      <path
         id="path24"
         style="fill:#ffffff;fill-opacity:1;fill-rule:nonzero;stroke:none"
         d="M 435.777,51.916 H 251.698 v 107.482 h 184.079 z" />
    </g>
  </g>
  <g
     transform="matrix(1.1734072,0,0,-1.1734072,51.095319,115.11285)"
     id="g26">
    <path
       id="path28"
       style="fill:#b1b9d0;fill-opacity:1;fill-rule:nonzero;stroke:none"
       d="m 0,0 v -21.833 l 108.31,0.856 V 58.65 L 64.643,23.117 41.526,35.104 Z" />
  </g>
  <g
     transform="matrix(1.1734072,0,0,-1.1734072,51.095319,115.11285)"
     id="g30">
    <path
       id="path32"
       style="fill:none;stroke:#000000;stroke-width:5;stroke-linecap:butt;stroke-linejoin:miter;stroke-miterlimit:4;stroke-dasharray:none;stroke-opacity:1"
       d="m 0,0 v -21.833 l 108.31,0.856 V 58.65 L 64.643,23.117 41.526,35.104 Z" />
  </g>
  <g
     transform="matrix(1.1734072,0,0,-1.1734072,74.993171,95.782613)"
     id="g34">
    <path
       id="path36"
       style="fill:none;stroke:#000000;stroke-width:5;stroke-linecap:butt;stroke-linejoin:miter;stroke-miterlimit:4;stroke-dasharray:none;stroke-opacity:1"
       d="M 0,0 V -37.668" />
  </g>
  <g
     transform="matrix(1.1734072,0,0,-1.1734072,98.935128,74.911093)"
     id="g38">
    <path
       id="path40"
       style="fill:none;stroke:#000000;stroke-width:5;stroke-linecap:butt;stroke-linejoin:miter;stroke-miterlimit:4;stroke-dasharray:none;stroke-opacity:1"
       d="M 0,0 V -54.932" />
  </g>
  <g
     transform="matrix(1.1734072,0,0,-1.1734072,125.94415,87.189513)"
     id="g42">
    <path
       id="path44"
       style="fill:none;stroke:#000000;stroke-width:5;stroke-linecap:butt;stroke-linejoin:miter;stroke-miterlimit:4;stroke-dasharray:none;stroke-opacity:1"
       d="M 0,0 V -44.468" />
  </g>
  <g
     transform="matrix(1.1734072,0,0,-1.1734072,152.34123,68.772423)"
     id="g46">
    <path
       id="path48"
       style="fill:none;stroke:#000000;stroke-width:5;stroke-linecap:butt;stroke-linejoin:miter;stroke-miterlimit:4;stroke-dasharray:none;stroke-opacity:1"
       d="M 0,0 V -59.117" />
  </g>
</svg>
