<?xml version="1.0" encoding="UTF-8" standalone="no"?>
<svg
   xmlns:dc="http://purl.org/dc/elements/1.1/"
   xmlns:cc="http://creativecommons.org/ns#"
   xmlns:rdf="http://www.w3.org/1999/02/22-rdf-syntax-ns#"
   xmlns:svg="http://www.w3.org/2000/svg"
   xmlns="http://www.w3.org/2000/svg"
   xmlns:sodipodi="http://sodipodi.sourceforge.net/DTD/sodipodi-0.dtd"
   xmlns:inkscape="http://www.inkscape.org/namespaces/inkscape"
   width="115.31212"
   height="210.49074"
   viewBox="0 0 115.31212 210.49074"
   version="1.1"
   id="svg29"
   sodipodi:docname="money-out-hero.svg"
   inkscape:version="0.92.2 (5c3e80d, 2017-08-06)">
  <metadata
     id="metadata35">
    <rdf:RDF>
      <cc:Work
         rdf:about="">
        <dc:format>image/svg+xml</dc:format>
        <dc:type
           rdf:resource="http://purl.org/dc/dcmitype/StillImage" />
        <dc:title></dc:title>
      </cc:Work>
    </rdf:RDF>
  </metadata>
  <defs
     id="defs33">
    <clipPath
       clipPathUnits="userSpaceOnUse"
       id="clipPath94">
      <path
         d="M 0,533.362 H 680.515 V 0 H 0 Z"
         id="path92"
         inkscape:connector-curvature="0" />
    </clipPath>
    <clipPath
       clipPathUnits="userSpaceOnUse"
       id="clipPath62">
      <path
         d="M 0,533.362 H 680.515 V 0 H 0 Z"
         id="path60"
         inkscape:connector-curvature="0" />
    </clipPath>
  </defs>
  <sodipodi:namedview
     pagecolor="#ffffff"
     bordercolor="#666666"
     borderopacity="1"
     objecttolerance="10"
     gridtolerance="10"
     guidetolerance="10"
     inkscape:pageopacity="0"
     inkscape:pageshadow="2"
     inkscape:window-width="1920"
     inkscape:window-height="1017"
     id="namedview31"
     showgrid="false"
     inkscape:zoom="1.7289377"
     inkscape:cx="-7.9968221"
     inkscape:cy="82.916058"
     inkscape:window-x="-8"
     inkscape:window-y="-8"
     inkscape:window-maximized="1"
     inkscape:current-layer="svg29"
     fit-margin-top="0"
     fit-margin-left="0"
     fit-margin-right="0"
     fit-margin-bottom="0" />
  <g
     transform="matrix(1.1151827,0,0,-1.1151827,-331.18306,450.87283)"
     id="g56">
    <g
       id="g58"
       clip-path="url(#clipPath62)">
      <g
         id="g64"
         transform="translate(386.1045,215.554)">
        <path
           d="m 0,0 h -74.854 c -7.851,0 -14.274,6.424 -14.274,14.274 v 160.202 c 0,7.851 6.423,14.274 14.274,14.274 H 0 c 7.851,0 14.274,-6.423 14.274,-14.274 V 14.274 C 14.274,6.424 7.851,0 0,0"
           style="fill:#000000;fill-opacity:1;fill-rule:nonzero;stroke:none"
           id="path66"
           inkscape:connector-curvature="0" />
      </g>
      <path
         d="m 393.591,241.193 h -89.826 v 140.212 h 89.826 z"
         style="fill:#ffffff;fill-opacity:1;fill-rule:nonzero;stroke:none"
         id="path68"
         inkscape:connector-curvature="0" />
      <path
         d="m 362.97,248.217 h -28.585 v 5.744 h 28.585 z"
         style="fill:#211e1f;fill-opacity:1;fill-rule:nonzero;stroke:none"
         id="path70"
         inkscape:connector-curvature="0" />
      <g
         id="g72"
         transform="translate(354.1436,227.6253)">
        <path
           d="m 0,0 c 0,-3.019 -2.447,-5.466 -5.466,-5.466 -3.018,0 -5.466,2.447 -5.466,5.466 0,3.019 2.448,5.466 5.466,5.466 C -2.447,5.466 0,3.019 0,0"
           style="fill:#ffffff;fill-opacity:1;fill-rule:nonzero;stroke:none"
           id="path74"
           inkscape:connector-curvature="0" />
      </g>
    </g>
  </g>
  <g
     id="g76"
     transform="matrix(1.1151827,0,0,-1.1151827,59.269185,106.06547)">
    <path
       d="M 0,0 17.695,-4.866"
       style="fill:none;stroke:#000000;stroke-width:3;stroke-linecap:butt;stroke-linejoin:round;stroke-miterlimit:4;stroke-dasharray:none;stroke-opacity:1"
       id="path78"
       inkscape:connector-curvature="0" />
  </g>
  <g
     id="g80"
     transform="matrix(1.1151827,0,0,-1.1151827,57.789225,84.357976)">
    <path
       d="M 0,0 13.051,5.309"
       style="fill:none;stroke:#000000;stroke-width:3;stroke-linecap:butt;stroke-linejoin:round;stroke-miterlimit:4;stroke-dasharray:none;stroke-opacity:1"
       id="path82"
       inkscape:connector-curvature="0" />
  </g>
  <g
     id="g84"
     transform="matrix(1.1151827,0,0,-1.1151827,49.895735,122.59281)">
    <path
       d="M 0,0 9.068,-9.511"
       style="fill:none;stroke:#000000;stroke-width:3;stroke-linecap:butt;stroke-linejoin:round;stroke-miterlimit:4;stroke-dasharray:none;stroke-opacity:1"
       id="path86"
       inkscape:connector-curvature="0" />
  </g>
  <g
     transform="matrix(1.1151827,0,0,-1.1151827,-331.18306,450.87283)"
     id="g88">
    <g
       id="g90"
       clip-path="url(#clipPath94)">
      <g
         id="g96"
         transform="translate(380.2246,337.9832)">
        <path
           d="m 0,0 c 0,-5.164 -4.186,-9.349 -9.349,-9.349 -5.164,0 -9.349,4.185 -9.349,9.349 0,5.164 4.185,9.349 9.349,9.349 C -4.186,9.349 0,5.164 0,0"
           style="fill:#8cdbf8;fill-opacity:1;fill-rule:nonzero;stroke:none"
           id="path98"
           inkscape:connector-curvature="0" />
      </g>
      <g
         id="g100"
         transform="translate(380.2246,337.9832)">
        <path
           d="m 0,0 c 0,-5.164 -4.186,-9.349 -9.349,-9.349 -5.164,0 -9.349,4.185 -9.349,9.349 0,5.164 4.185,9.349 9.349,9.349 C -4.186,9.349 0,5.164 0,0 Z"
           style="fill:none;stroke:#000000;stroke-width:3;stroke-linecap:butt;stroke-linejoin:round;stroke-miterlimit:4;stroke-dasharray:none;stroke-opacity:1"
           id="path102"
           inkscape:connector-curvature="0" />
      </g>
      <g
         id="g104"
         transform="translate(366.9424,277.4964)">
        <path
           d="m 0,0 c 0,-5.164 -4.187,-9.35 -9.35,-9.35 -5.163,0 -9.349,4.186 -9.349,9.35 0,5.163 4.186,9.349 9.349,9.349 C -4.187,9.349 0,5.163 0,0"
           style="fill:#8cdbf8;fill-opacity:1;fill-rule:nonzero;stroke:none"
           id="path106"
           inkscape:connector-curvature="0" />
      </g>
      <g
         id="g108"
         transform="translate(366.9424,277.4964)">
        <path
           d="m 0,0 c 0,-5.164 -4.187,-9.35 -9.35,-9.35 -5.163,0 -9.349,4.186 -9.349,9.35 0,5.163 4.186,9.349 9.349,9.349 C -4.187,9.349 0,5.163 0,0 Z"
           style="fill:none;stroke:#000000;stroke-width:3;stroke-linecap:butt;stroke-linejoin:round;stroke-miterlimit:4;stroke-dasharray:none;stroke-opacity:1"
           id="path110"
           inkscape:connector-curvature="0" />
      </g>
      <g
         id="g112"
         transform="translate(386.8711,301.9114)">
        <path
           d="m 0,0 c 0,-5.163 -4.187,-9.349 -9.35,-9.349 -5.163,0 -9.349,4.186 -9.349,9.349 0,5.164 4.186,9.35 9.349,9.35 C -4.187,9.35 0,5.164 0,0"
           style="fill:#8cdbf8;fill-opacity:1;fill-rule:nonzero;stroke:none"
           id="path114"
           inkscape:connector-curvature="0" />
      </g>
      <g
         id="g116"
         transform="translate(386.8711,301.9114)">
        <path
           d="m 0,0 c 0,-5.163 -4.187,-9.349 -9.35,-9.349 -5.163,0 -9.349,4.186 -9.349,9.349 0,5.164 4.186,9.35 9.349,9.35 C -4.187,9.35 0,5.164 0,0 Z"
           style="fill:none;stroke:#000000;stroke-width:3;stroke-linecap:butt;stroke-linejoin:round;stroke-miterlimit:4;stroke-dasharray:none;stroke-opacity:1"
           id="path118"
           inkscape:connector-curvature="0" />
      </g>
      <g
         id="g120"
         transform="translate(370.875,335.2918)">
        <path
           d="m 0,0 -1.738,1.003 c -1.464,0 -2.491,-0.625 -2.646,-2.081 -0.027,-0.259 -0.261,-2.417 -0.294,-2.797 -0.114,-1.331 1.574,-1.431 2.94,-1.431 h 3.549 c 1.362,0 3.002,0.14 2.911,1.47 C 4.689,-3.36 4.468,-1.513 4.473,-1.254 4.501,0.209 3.275,1.003 1.811,1.003 Z"
           style="fill:#000000;fill-opacity:1;fill-rule:nonzero;stroke:none"
           id="path122"
           inkscape:connector-curvature="0" />
      </g>
      <g
         id="g124"
         transform="translate(373.3809,339.1848)">
        <path
           d="m 0,0 c 0,-1.373 -1.112,-2.485 -2.484,-2.485 -1.373,0 -2.486,1.112 -2.486,2.485 0,1.373 1.113,2.485 2.486,2.485 C -1.112,2.485 0,1.373 0,0"
           style="fill:#000000;fill-opacity:1;fill-rule:nonzero;stroke:none"
           id="path126"
           inkscape:connector-curvature="0" />
      </g>
      <g
         id="g128"
         transform="translate(377.5107,299.2366)">
        <path
           d="m 0,0 -1.737,1.003 c -1.464,0 -2.492,-0.625 -2.647,-2.081 -0.027,-0.259 -0.261,-2.417 -0.294,-2.797 -0.114,-1.331 1.574,-1.431 2.941,-1.431 h 3.549 c 1.362,0 3.001,0.14 2.91,1.47 C 4.689,-3.36 4.468,-1.513 4.473,-1.254 4.502,0.209 3.275,1.003 1.812,1.003 Z"
           style="fill:#000000;fill-opacity:1;fill-rule:nonzero;stroke:none"
           id="path130"
           inkscape:connector-curvature="0" />
      </g>
      <g
         id="g132"
         transform="translate(380.0176,303.1297)">
        <path
           d="m 0,0 c 0,-1.373 -1.113,-2.485 -2.485,-2.485 -1.372,0 -2.486,1.112 -2.486,2.485 0,1.373 1.114,2.485 2.486,2.485 C -1.113,2.485 0,1.373 0,0"
           style="fill:#000000;fill-opacity:1;fill-rule:nonzero;stroke:none"
           id="path134"
           inkscape:connector-curvature="0" />
      </g>
      <g
         id="g136"
         transform="translate(357.5957,274.8347)">
        <path
           d="m 0,0 -1.738,1.004 c -1.464,0 -2.491,-0.626 -2.646,-2.082 -0.027,-0.259 -0.261,-2.417 -0.294,-2.797 -0.114,-1.331 1.574,-1.431 2.94,-1.431 h 3.55 c 1.362,0 3.001,0.14 2.91,1.47 C 4.689,-3.36 4.468,-1.513 4.473,-1.254 4.502,0.21 3.275,1.004 1.812,1.004 Z"
           style="fill:#000000;fill-opacity:1;fill-rule:nonzero;stroke:none"
           id="path138"
           inkscape:connector-curvature="0" />
      </g>
      <g
         id="g140"
         transform="translate(360.1025,278.7278)">
        <path
           d="m 0,0 c 0,-1.372 -1.113,-2.485 -2.485,-2.485 -1.372,0 -2.486,1.113 -2.486,2.485 0,1.373 1.114,2.485 2.486,2.485 C -1.113,2.485 0,1.373 0,0"
           style="fill:#000000;fill-opacity:1;fill-rule:nonzero;stroke:none"
           id="path142"
           inkscape:connector-curvature="0" />
      </g>
      <g
         id="g144"
         transform="translate(326.8882,326.1009)">
        <path
           d="m 0,0 c -2.101,5.345 -12.609,4.373 -12.599,-2.862 0.011,-7.236 14.508,-5.154 14.245,-13.811 -0.691,-8.714 -14.388,-7.762 -15.173,-0.264"
           style="fill:none;stroke:#000000;stroke-width:4;stroke-linecap:butt;stroke-linejoin:round;stroke-miterlimit:4;stroke-dasharray:none;stroke-opacity:1"
           id="path146"
           inkscape:connector-curvature="0" />
      </g>
      <g
         id="g148"
         transform="translate(320.4897,336.4065)">
        <path
           d="M 0,0 -0.078,-6.054"
           style="fill:none;stroke:#000000;stroke-width:4;stroke-linecap:butt;stroke-linejoin:round;stroke-miterlimit:4;stroke-dasharray:none;stroke-opacity:1"
           id="path150"
           inkscape:connector-curvature="0" />
      </g>
      <g
         id="g152"
         transform="translate(321.0918,302.4417)">
        <path
           d="M 0,0 0.078,-6.054"
           style="fill:none;stroke:#000000;stroke-width:4;stroke-linecap:butt;stroke-linejoin:round;stroke-miterlimit:4;stroke-dasharray:none;stroke-opacity:1"
           id="path154"
           inkscape:connector-curvature="0" />
      </g>
      <g
         id="g156"
         transform="translate(299.2036,338.8738)">
        <path
           d="m 0,0 c 5.472,5.085 12.805,8.195 20.864,8.195 16.931,0 30.657,-13.725 30.657,-30.657 0,-16.931 -13.726,-30.657 -30.657,-30.657 -8.183,0 -15.618,3.207 -21.116,8.432"
           style="fill:none;stroke:#000000;stroke-width:4;stroke-linecap:butt;stroke-linejoin:round;stroke-miterlimit:4;stroke-dasharray:none;stroke-opacity:1"
           id="path158"
           inkscape:connector-curvature="0" />
      </g>
      <g
         id="g160"
         transform="translate(335.0825,344.1429)">
        <path
           d="M 0,0 12.608,14.378"
           style="fill:none;stroke:#000000;stroke-width:3;stroke-linecap:butt;stroke-linejoin:round;stroke-miterlimit:4;stroke-dasharray:none;stroke-opacity:1"
           id="path162"
           inkscape:connector-curvature="0" />
      </g>
      <g
         id="g164"
         transform="translate(363.3799,365.5989)">
        <path
           d="m 0,0 c 0,-5.163 -4.186,-9.349 -9.35,-9.349 -5.163,0 -9.348,4.186 -9.348,9.349 0,5.164 4.185,9.35 9.348,9.35 C -4.186,9.35 0,5.164 0,0"
           style="fill:#8cdbf8;fill-opacity:1;fill-rule:nonzero;stroke:none"
           id="path166"
           inkscape:connector-curvature="0" />
      </g>
      <g
         id="g168"
         transform="translate(363.3799,365.5989)">
        <path
           d="m 0,0 c 0,-5.163 -4.186,-9.349 -9.35,-9.349 -5.163,0 -9.348,4.186 -9.348,9.349 0,5.164 4.185,9.35 9.348,9.35 C -4.186,9.35 0,5.164 0,0 Z"
           style="fill:none;stroke:#000000;stroke-width:3;stroke-linecap:butt;stroke-linejoin:round;stroke-miterlimit:4;stroke-dasharray:none;stroke-opacity:1"
           id="path170"
           inkscape:connector-curvature="0" />
      </g>
      <g
         id="g172"
         transform="translate(354.0293,362.908)">
        <path
           d="m 0,0 -1.737,1.003 c -1.464,0 -2.492,-0.625 -2.646,-2.081 -0.027,-0.259 -0.262,-2.417 -0.294,-2.797 -0.114,-1.332 1.574,-1.431 2.94,-1.431 h 3.549 c 1.362,0 3.001,0.14 2.911,1.47 C 4.689,-3.36 4.468,-1.514 4.474,-1.254 4.502,0.209 3.275,1.003 1.812,1.003 Z"
           style="fill:#000000;fill-opacity:1;fill-rule:nonzero;stroke:none"
           id="path174"
           inkscape:connector-curvature="0" />
      </g>
      <g
         id="g176"
         transform="translate(356.5361,366.8011)">
        <path
           d="m 0,0 c 0,-1.373 -1.112,-2.485 -2.485,-2.485 -1.372,0 -2.485,1.112 -2.485,2.485 0,1.372 1.113,2.485 2.485,2.485 C -1.112,2.485 0,1.372 0,0"
           style="fill:#000000;fill-opacity:1;fill-rule:nonzero;stroke:none"
           id="path178"
           inkscape:connector-curvature="0" />
      </g>
    </g>
  </g>
</svg>
